name C:\Users\Nicos\Desktop\Gil_twoSteps\Study2\ExperimentalData\IK_Splined\twoSteps_IK_BSplines_180_meshInts_study2_p02_s_01_lowIK_modROI.mot
datacolumns 38
datarows 7
range 0.43700000 0.44098443
endheader
                time	         pelvis_tilt	         pelvis_list	     pelvis_rotation	           pelvis_tx	           pelvis_ty	           pelvis_tz	       hip_flexion_r	     hip_adduction_r	      hip_rotation_r	        knee_angle_r	       ankle_angle_r	    subtalar_angle_r	         mtp_angle_r	       hip_flexion_l	     hip_adduction_l	      hip_rotation_l	        knee_angle_l	       ankle_angle_l	    subtalar_angle_l	         mtp_angle_l	    lumbar_extension	      lumbar_bending	     lumbar_rotation	          arm_flex_r	           arm_add_r	           arm_rot_r	        elbow_flex_r	           pro_sup_r	        wrist_flex_r	         wrist_dev_r	          arm_flex_l	           arm_add_l	           arm_rot_l	        elbow_flex_l	           pro_sup_l	        wrist_flex_l	         wrist_dev_l	
          0.43700000	        -21.47999582	          1.40833770	        -11.36385294	         -0.86225210	          0.85366342	          0.34102168	         25.49618507	          1.62454207	         10.78443645	        -56.88941672	         18.80731546	        -16.02286336	         12.54473686	         53.38234712	         -3.63675579	        -14.77524562	       -110.56323499	         -5.96084558	        -14.41864402	         10.20845535	        -25.63298296	         -3.42848394	         -6.78089717	         32.74907463	          1.27745351	          9.83684383	         81.56696253	         71.96195773	         -5.49853363	         10.71102344	        -43.70786208	         -9.82056977	        -17.01385885	         37.21798358	         71.14475790	        -10.39650127	         19.42849019	
          0.43737557	        -21.46467107	          1.46589790	        -11.41218521	         -0.86059433	          0.85361367	          0.34111680	         25.34090135	          1.53548196	         10.81344473	        -56.78528025	         18.76476159	        -15.98173257	         12.63433029	         53.64268532	         -3.60361201	        -14.75002599	       -110.66366651	         -5.87206800	        -14.43342185	         10.19530018	        -25.60602070	         -3.53752545	         -6.78125160	         33.07450810	          1.38494660	          9.89954983	         81.70225799	         71.95438489	         -5.50891508	         10.71427330	        -44.01881906	         -9.78014057	        -17.05081490	         37.30172786	         71.30766140	        -10.35843184	         19.48071713	
          0.43856221	        -21.41625109	          1.64776464	        -11.56489543	         -0.85535646	          0.85345648	          0.34141736	         24.85026821	          1.25408834	         10.90509908	        -56.45625150	         18.63030874	        -15.85177604	         12.91740899	         54.46524776	         -3.49889120	        -14.67034224	       -110.98098914	         -5.59156706	        -14.48011377	         10.15373524	        -25.52083096	         -3.88205212	         -6.78237149	         34.10274501	          1.72458089	         10.09767520	         82.12973641	         71.93045783	         -5.54171622	         10.72454153	        -45.00131616	         -9.65240083	        -17.16758094	         37.56632563	         71.82236997	        -10.23814799	         19.64573294	
          0.43942222	        -21.38483520	          1.78299516	        -11.66794262	         -0.85154422	          0.85333138	          0.34162354	         24.49469859	          1.03994977	         10.96521868	        -56.20809769	         18.53245353	        -15.74902890	         13.12765303	         55.06553318	         -3.41685707	        -14.60935173	       -111.19799012	         -5.39607609	        -14.52436904	         10.11218369	        -25.45120934	         -4.13235206	         -6.77725165	         34.83507624	          1.95570364	         10.23854300	         82.45392198	         71.91305723	         -5.56637290	         10.73144575	        -45.71377625	         -9.56101572	        -17.25144345	         37.77538695	         72.19396836	        -10.14837706	         19.76144667	
          0.43942222	        -21.38483520	          1.78299516	        -11.66794262	         -0.85154422	          0.85333138	          0.34162354	         24.49469859	          1.03994977	         10.96521868	        -56.20809769	         18.53245353	        -15.74902890	         13.12765303	         55.06553318	         -3.41685707	        -14.60935173	       -111.19799012	         -5.39607609	        -14.52436904	         10.11218369	        -25.45120934	         -4.13235206	         -6.77725165	         34.83507624	          1.95570364	         10.23854300	         82.45392198	         71.91305723	         -5.56637290	         10.73144575	        -45.71377625	         -9.56101572	        -17.25144345	         37.77538695	         72.19396836	        -10.14837706	         19.76144667	
          0.43979779	        -21.37251676	          1.84335502	        -11.71003631	         -0.84987327	          0.85327250	          0.34170914	         24.33942652	          0.94254842	         10.98906977	        -56.09603546	         18.48956341	        -15.70089652	         13.22140417	         55.32925491	         -3.37869361	        -14.58148242	       -111.28780948	         -5.31367763	        -14.54766438	         10.08968342	        -25.41780242	         -4.24188915	         -6.77275552	         35.14997832	          2.05090937	         10.29902260	         82.60097104	         71.90543566	         -5.57747745	         10.73425596	        -46.02506062	         -9.52156263	        -17.28777549	         37.87327492	         72.35569917	        -10.10818485	         19.81050014	
          0.44098443	        -21.33359550	          2.03406755	        -11.84303519	         -0.84459374	          0.85308644	          0.34197961	         23.84883015	          0.63479990	         11.06442950	        -55.74196457	         18.35404812	        -15.54881785	         13.51761953	         56.16250793	         -3.25811266	        -14.49342679	       -111.57160200	         -5.05333213	        -14.62126815	         10.01859174	        -25.31225018	         -4.58798163	         -6.75854960	         36.14494035	          2.35172063	         10.49011342	         83.06558607	         71.88135464	         -5.61256328	         10.74313508	        -47.00859215	         -9.39690699	        -17.40256989	         38.18256095	         72.86670253	         -9.98119388	         19.96548911	
